<svg xmlns="http://www.w3.org/2000/svg" version="1.1" xmlns:xlink="http://www.w3.org/1999/xlink" xmlns:svgjs="http://svgjs.dev/svgjs" width="1500" height="1500" viewBox="0 0 1500 1500"><g transform="matrix(1,0,0,1,-0.3236151603499593,-0.3236151603499593)"><svg viewBox="0 0 343 343" data-background-color="#ffffff" preserveAspectRatio="xMidYMid meet" height="1500" width="1500" xmlns="http://www.w3.org/2000/svg" xmlns:xlink="http://www.w3.org/1999/xlink"><g id="tight-bounds" transform="matrix(1,0,0,1,0.07400000000001228,0.07400000000001228)"><svg viewBox="0 0 342.8515585177538 342.8515585177538" height="342.8515585177538" width="342.8515585177538"><g><svg></svg></g><g><svg viewBox="0 0 342.8515585177538 342.8515585177538" height="342.8515585177538" width="342.8515585177538"><g><path d="M0 171.426c0-94.676 76.75-171.426 171.426-171.426 94.676 0 171.426 76.75 171.426 171.426 0 94.676-76.75 171.426-171.426 171.426-94.676 0-171.426-76.75-171.426-171.426zM171.426 329.949c87.55 0 158.523-70.973 158.523-158.523 0-87.55-70.973-158.523-158.523-158.523-87.55 0-158.523 70.973-158.523 158.523 0 87.55 70.973 158.523 158.523 158.523z" data-fill-palette-color="tertiary" fill="#755be4" stroke="transparent"></path><ellipse rx="164.56874808852183" ry="164.56874808852183" cx="171.4257792588769" cy="171.4257792588769" fill="#755be4" stroke="transparent" stroke-width="0" fill-opacity="1" data-fill-palette-color="tertiary"></ellipse></g><g transform="matrix(1,0,0,1,64.84655864529836,99.88783601089717)"><svg viewBox="0 0 213.15844122715708 143.07588649595945" height="143.07588649595945" width="213.15844122715708"><g><svg viewBox="0 0 213.15844122715708 143.07588649595945" height="143.07588649595945" width="213.15844122715708"><g><svg viewBox="0 0 213.15844122715714 143.07588649595948" height="143.07588649595945" width="213.15844122715708"><g><svg viewBox="0 0 213.15844122715714 143.07588649595948" height="143.07588649595948" width="213.15844122715714"><g id="textblocktransform"><svg viewBox="0 0 213.15844122715714 143.07588649595948" height="143.07588649595948" width="213.15844122715714" id="textblock"><g><svg viewBox="0 0 213.15844122715714 143.07588649595948" height="143.07588649595948" width="213.15844122715714"><g transform="matrix(1,0,0,1,0,0)"><svg width="213.15844122715714" viewBox="3.78 -31.95 47.589999999999996 31.95" height="143.07588649595948" data-palette-color="#ffffff"><path d="M7.93-31.95L7.93 0 3.78 0 3.78-31.95 7.93-31.95ZM6 0L6-3.53 22.85-3.53 22.85 0 6 0ZM38.82 0L30.92 0 30.92-3.5 38.67-3.5Q42.92-3.5 45.06-5.81 47.2-8.13 47.2-12.43L47.2-12.43 47.2-19.55Q47.2-23.88 45.06-26.18 42.92-28.48 38.67-28.48L38.67-28.48 30.9-28.48 30.9-31.95 38.82-31.95Q45.02-31.95 48.2-28.76 51.37-25.58 51.37-19.58L51.37-19.58 51.37-12.4Q51.37-6.43 48.2-3.21 45.02 0 38.82 0L38.82 0ZM32.22 0L28.12 0 28.12-31.95 32.22-31.95 32.22 0Z" opacity="1" transform="matrix(1,0,0,1,0,0)" fill="#ffffff" class="wordmark-text-0" data-fill-palette-color="quaternary" id="text-0"></path></svg></g></svg></g></svg></g></svg></g><g></g></svg></g></svg></g></svg></g></svg></g><defs></defs></svg><rect width="342.8515585177538" height="342.8515585177538" fill="none" stroke="none" visibility="hidden"></rect></g></svg></g></svg>